# xmcd
#
# Track frame offsets: 
#        150
#        13486
#        27031
#        45918
#        55747
#        70804
#        102581
#        113294
#        120544
#        137731
#        150520
#        162812
#        181343
#        196027
#
# Disc length: 2834 seconds
#
# Revision: 0
# Processed by: cddbd v1.5.2PL0 Copyright (c) Steve Scherf et al.
# Submitted via: ExactAudioCopy v1.1
#
DISCID=a80b100e
DTITLE=Sandra St. Victor - Oya's Daughter
DYEAR=2013
DGENRE=R&B
TTITLE0=Is This Thing On ?
TTITLE1=Fate's Laugh
TTITLE2=Grateful
TTITLE3=Spirit Talk
TTITLE4=Stuff Momma Used To Say
TTITLE5=Eternal
TTITLE6=Sugarfoot Is Dead
TTITLE7=Awakenings
TTITLE8=What Have We Learned Pt 1
TTITLE9=WTF Opus Pt 2
TTITLE10=I Prefer (OYA)
TTITLE11=Presence
TTITLE12=Another Kind Of Diva (Success Hooker)
TTITLE13=Coming Around
EXTD=
EXTT0=
EXTT1=
EXTT2=
EXTT3=
EXTT4=
EXTT5=
EXTT6=
EXTT7=
EXTT8=
EXTT9=
EXTT10=
EXTT11=
EXTT12=
EXTT13=
PLAYORDER=
